<?xml version="1.0" standalone="no"?>
<!DOCTYPE svg PUBLIC "-//W3C//DTD SVG 20010904//EN"
 "http://www.w3.org/TR/2001/REC-SVG-20010904/DTD/svg10.dtd">
<svg xmlns="http://www.w3.org/2000/svg"
     width="700.000000pt" height="700.000000pt" viewBox="0 0 700.000000 700.000000"
     preserveAspectRatio="xMidYMid meet">
<metadata>
Created by potrace 1.11, written by Peter Selinger 2001-2013
</metadata>
<g transform="translate(0.000000,700.000000) scale(0.100000,-0.100000)"
fill="#000000" stroke="none">
<path d="M3278 6996 c-1 -2 -41 -6 -88 -10 -87 -7 -105 -9 -225 -27 -116 -18
-123 -19 -192 -35 -154 -34 -203 -47 -313 -81 -260 -80 -580 -226 -815 -373
-533 -334 -981 -825 -1266 -1387 -129 -255 -252 -596 -294 -814 -3 -13 -12
-58 -20 -99 -8 -41 -17 -89 -19 -105 -3 -17 -7 -46 -11 -66 -6 -40 -10 -75
-22 -199 -15 -162 -8 -592 12 -711 2 -13 6 -46 9 -74 9 -78 22 -152 51 -285
21 -96 91 -339 114 -395 5 -11 26 -65 46 -120 53 -138 160 -358 239 -489 36
-60 66 -111 66 -113 0 -2 4 -9 10 -16 5 -7 46 -64 91 -126 188 -268 410 -501
679 -716 92 -74 370 -265 386 -265 4 0 15 -6 23 -14 32 -28 314 -166 448 -219
175 -70 410 -144 546 -173 101 -21 216 -41 277 -49 25 -3 56 -7 69 -10 135
-26 700 -26 839 0 16 3 104 15 147 20 204 26 585 139 835 248 126 54 331 159
369 189 13 10 28 18 33 18 5 0 14 5 21 10 7 6 64 45 127 86 243 161 495 381
672 588 34 39 64 73 68 76 4 3 44 55 90 115 152 200 284 417 388 638 23 49 42
91 42 93 0 2 11 27 24 56 57 127 151 421 182 573 17 81 54 301 59 350 4 33 9
71 11 85 9 46 11 524 4 605 -12 128 -21 202 -25 227 -3 13 -8 43 -11 68 -3 25
-9 61 -14 80 -5 19 -12 51 -15 70 -12 71 -65 268 -100 375 -236 710 -691 1325
-1299 1758 -71 50 -137 96 -147 102 -272 159 -363 206 -524 273 -253 106 -580
199 -795 227 -19 3 -46 7 -60 10 -13 2 -52 7 -86 11 -33 3 -74 8 -90 10 -33 5
-540 14 -546 10z m482 -590 c284 -32 449 -68 685 -148 130 -44 152 -53 325
-135 152 -72 359 -196 461 -278 14 -11 41 -31 59 -45 115 -85 309 -269 421
-401 107 -126 117 -139 214 -284 254 -382 409 -794 470 -1255 25 -192 25 -552
0 -727 -70 -477 -216 -866 -471 -1250 -170 -257 -416 -518 -653 -697 -36 -27
-67 -53 -69 -58 -2 -4 -7 -8 -11 -8 -5 0 -44 -24 -87 -53 -350 -233 -804 -407
-1186 -453 -24 -2 -53 -7 -65 -9 -109 -24 -561 -24 -703 -1 -14 2 -47 7 -75
11 -60 8 -278 52 -320 64 -191 59 -254 80 -354 121 -647 266 -1166 740 -1490
1362 -178 340 -289 728 -318 1103 -9 119 -9 323 0 460 6 96 11 140 32 268 3
15 7 42 10 60 3 17 8 39 10 47 2 8 7 29 10 47 3 18 9 42 14 55 5 13 9 25 9 28
0 14 27 107 58 199 137 410 385 812 689 1116 170 170 362 327 517 420 259 157
470 253 709 324 57 17 118 35 134 41 29 9 271 54 350 65 22 2 85 8 140 11 55
4 101 8 103 9 5 5 328 -3 382 -9z"/>
<path d="M3270 4984 c-124 -146 -238 -280 -255 -297 -16 -18 -49 -55 -72 -83
-64 -76 -115 -136 -149 -174 -17 -19 -66 -75 -109 -125 -82 -96 -89 -104 -175
-205 -30 -36 -60 -71 -67 -78 -7 -7 -146 -169 -310 -359 -164 -191 -317 -368
-340 -392 -23 -25 -40 -47 -38 -49 7 -7 3485 -7 3485 0 0 6 -275 330 -435 513
-29 33 -170 197 -315 365 -240 280 -310 360 -370 430 -12 14 -41 47 -64 74
-22 28 -59 70 -82 95 -22 26 -123 143 -225 261 -101 118 -200 231 -219 252
l-35 36 -225 -264z"/>
<path d="M1750 2625 l0 -292 1750 0 1750 1 0 291 0 292 -1750 0 -1750 0 0
-292z"/>
</g>
</svg>
